<?xml version="1.0" encoding="UTF-8"?>
<!DOCTYPE svg PUBLIC "-//W3C//DTD SVG 1.1//EN" "http://www.w3.org/Graphics/SVG/1.1/DTD/svg11.dtd">
<svg xmlns="http://www.w3.org/2000/svg" version="1.1" width="20" height="20" style="shape-rendering:geometricPrecision; text-rendering:geometricPrecision; image-rendering:optimizeQuality; fill-rule:evenodd; clip-rule:evenodd" xmlns:xlink="http://www.w3.org/1999/xlink">
<g><path style="opacity:0.991" fill="#444544" d="M 233.5,46.5 C 333.016,41.6683 409.183,81.0017 462,164.5C 492.477,219.168 501.143,277.168 488,338.5C 481.63,366.231 470.63,391.898 455,415.5C 434.687,384.934 406.187,372.101 369.5,377C 344.176,381.576 324.676,394.743 311,416.5C 305.885,424.844 302.552,433.844 301,443.5C 300.38,454.912 300.38,466.245 301,477.5C 282.056,465.98 261.556,462.146 239.5,466C 228.787,467.68 218.954,471.513 210,477.5C 216.081,433.826 199.581,401.993 160.5,382C 138.5,374.667 116.5,374.667 94.5,382C 78.338,389.333 65.5047,400.499 56,415.5C 18.3121,355.701 7.97881,291.367 25,222.5C 50.0668,139.1 103.9,83.5999 186.5,56C 202.057,51.5889 217.723,48.4223 233.5,46.5 Z M 251.5,103.5 C 268.466,103.299 276.3,111.632 275,128.5C 271.973,137.938 265.473,142.938 255.5,143.5C 237.045,139.591 231.545,128.924 239,111.5C 242.378,107.406 246.545,104.739 251.5,103.5 Z M 259.5,192.5 C 263.767,192.203 267.934,192.536 272,193.5C 272.5,244.166 272.667,294.832 272.5,345.5C 281.83,346.6 291.163,347.767 300.5,349C 301.131,350.906 301.464,352.906 301.5,355C 301.4,357.302 300.733,359.302 299.5,361C 270.833,361.667 242.167,361.667 213.5,361C 212.536,356.934 212.203,352.767 212.5,348.5C 222.218,347.828 231.885,346.828 241.5,345.5C 242.5,302.172 242.833,258.838 242.5,215.5C 232.159,214.573 221.825,213.573 211.5,212.5C 211.207,208.563 211.54,204.73 212.5,201C 228.341,198.362 244.008,195.528 259.5,192.5 Z"/></g>
<g><path style="opacity:0.984" fill="#444544" d="M 118.5,385.5 C 156.702,383.838 183.202,400.504 198,435.5C 203.448,454.538 202.448,473.204 195,491.5C 189.555,497.614 184.888,504.28 181,511.5C 158.525,532.931 132.358,539.098 102.5,530C 64.8495,513.307 49.0162,484.473 55,443.5C 61.5999,417.902 77.0999,400.069 101.5,390C 107.211,388.166 112.878,386.666 118.5,385.5 Z"/></g>
<g><path style="opacity:0.984" fill="#444544" d="M 374.5,385.5 C 412.702,383.838 439.202,400.504 454,435.5C 464.604,477.108 451.104,507.941 413.5,528C 382.163,539.799 354.33,534.299 330,511.5C 326.112,504.28 321.445,497.614 316,491.5C 301.259,451.259 311.426,419.093 346.5,395C 355.446,390.296 364.779,387.13 374.5,385.5 Z"/></g>
<g><path style="opacity:0.984" fill="#444544" d="M 243.5,474.5 C 289.293,471.622 317.793,492.289 329,536.5C 332.555,576.248 316.055,603.748 279.5,619C 242.899,628.597 213.733,618.097 192,587.5C 177.706,560.622 178.039,533.955 193,507.5C 205.36,489.575 222.193,478.575 243.5,474.5 Z"/></g>
<g><path style="opacity:0.987" fill="#444544" d="M 113.5,543.5 C 133.65,541.473 152.984,544.473 171.5,552.5C 175.87,587.283 193.87,611.95 225.5,626.5C 167.963,647.513 140.297,688.846 142.5,750.5C 102.833,750.5 63.1667,750.5 23.5,750.5C 23.3333,713.165 23.5,675.832 24,638.5C 28.5387,598.644 48.7053,569.811 84.5,552C 93.9773,548.053 103.644,545.219 113.5,543.5 Z"/></g>
<g><path style="opacity:0.987" fill="#444544" d="M 369.5,543.5 C 425.333,540.213 463.166,564.546 483,616.5C 485.106,623.694 486.439,631.028 487,638.5C 487.5,675.832 487.667,713.165 487.5,750.5C 447.833,750.5 408.167,750.5 368.5,750.5C 370.703,688.846 343.037,647.513 285.5,626.5C 317.143,611.914 335.143,587.247 339.5,552.5C 349.259,548.243 359.259,545.243 369.5,543.5 Z"/></g>
<g><path style="opacity:0.988" fill="#444544" d="M 246.5,631.5 C 292.568,630.273 326.735,649.606 349,689.5C 354.574,701.224 357.908,713.557 359,726.5C 359.5,764.165 359.667,801.832 359.5,839.5C 290.167,839.5 220.833,839.5 151.5,839.5C 151.333,801.832 151.5,764.165 152,726.5C 160.345,671.655 191.845,639.988 246.5,631.5 Z"/></g>
</svg>
