<?xml version="1.0" encoding="UTF-8"?>
<!DOCTYPE svg PUBLIC "-//W3C//DTD SVG 1.1//EN" "http://www.w3.org/Graphics/SVG/1.1/DTD/svg11.dtd">
<svg xmlns="http://www.w3.org/2000/svg" version="1.1" width="512px" height="512px" style="shape-rendering:geometricPrecision; text-rendering:geometricPrecision; image-rendering:optimizeQuality; fill-rule:evenodd; clip-rule:evenodd" xmlns:xlink="http://www.w3.org/1999/xlink">
<g><path style="opacity:0.98" fill="#444544" d="M 378.5,-0.5 C 391.167,-0.5 403.833,-0.5 416.5,-0.5C 468.72,11.7198 500.387,44.0531 511.5,96.5C 511.5,107.5 511.5,118.5 511.5,129.5C 499.815,184.016 466.482,216.516 411.5,227C 351.084,230.06 309.917,203.56 288,147.5C 274.621,93.4739 290.121,49.9739 334.5,17C 348.226,8.48704 362.893,2.6537 378.5,-0.5 Z M 450.5,66.5 C 465.45,69.0628 469.95,77.3961 464,91.5C 438.472,117.362 412.639,142.862 386.5,168C 381.348,170.122 376.348,169.789 371.5,167C 358,153.5 344.5,140 331,126.5C 326.489,117.714 327.989,110.214 335.5,104C 341.345,101.752 347.012,102.085 352.5,105C 361.375,114.21 370.542,123.043 380,131.5C 399.757,111.743 419.591,91.9092 439.5,72C 442.728,69.0525 446.395,67.2192 450.5,66.5 Z"/></g>
<g><path style="opacity:0.993" fill="#444544" d="M 38.5,61.5 C 120.169,61.1667 201.836,61.5 283.5,62.5C 264.104,112.459 271.604,157.793 306,198.5C 341.63,232.534 383.463,243.367 431.5,231C 449.817,225.681 465.817,216.514 479.5,203.5C 480.667,260.83 480.833,318.164 480,375.5C 474.833,395.333 462.333,407.833 442.5,413C 374.5,413.333 306.5,413.667 238.5,414C 198.788,446.047 158.788,477.714 118.5,509C 108.64,511.649 101.473,508.482 97,499.5C 96.5,470.835 96.3334,442.169 96.5,413.5C 77.1638,413.667 57.8305,413.5 38.5,413C 18.6667,407.833 6.16667,395.333 1,375.5C 0.333333,283.5 0.333333,191.5 1,99.5C 6.34882,79.6518 18.8488,66.9852 38.5,61.5 Z M 76.5,140.5 C 136.167,140.5 195.833,140.5 255.5,140.5C 257.356,155.736 262.023,170.069 269.5,183.5C 237.333,183.833 205.167,184.167 173,184.5C 138.801,184.646 104.634,184.146 70.5,183C 58.5896,177.004 54.4229,167.504 58,154.5C 61.416,146.057 67.5826,141.39 76.5,140.5 Z M 76.5,211.5 C 148.167,211.333 219.834,211.5 291.5,212C 315.507,238.668 345.507,253.002 381.5,255C 279.833,255.667 178.167,255.667 76.5,255C 63.8319,253.496 57.1652,246.33 56.5,233.5C 57.3485,220.659 64.0151,213.326 76.5,211.5 Z M 76.5,285.5 C 178.167,285.333 279.834,285.5 381.5,286C 394.168,287.504 400.835,294.67 401.5,307.5C 400.835,320.33 394.168,327.496 381.5,329C 279.833,329.667 178.167,329.667 76.5,329C 63.8319,327.496 57.1652,320.33 56.5,307.5C 57.3485,294.659 64.0151,287.326 76.5,285.5 Z"/></g>
</svg>
