<?xml version="1.0" encoding="UTF-8"?>
<!DOCTYPE svg PUBLIC "-//W3C//DTD SVG 1.1//EN" "http://www.w3.org/Graphics/SVG/1.1/DTD/svg11.dtd">
<svg xmlns="http://www.w3.org/2000/svg" version="1.1" width="512px" height="512px" style="shape-rendering:geometricPrecision; text-rendering:geometricPrecision; image-rendering:optimizeQuality; fill-rule:evenodd; clip-rule:evenodd" xmlns:xlink="http://www.w3.org/1999/xlink">
<g><path style="opacity:0.978" fill="#444544" d="M 189.5,-0.5 C 203.833,-0.5 218.167,-0.5 232.5,-0.5C 294.531,8.06872 342.698,38.4021 377,90.5C 393.5,119.667 410,148.833 426.5,178C 445.5,178.333 464.5,178.667 483.5,179C 491.572,180.914 495.905,186.08 496.5,194.5C 495.992,201.37 492.658,206.203 486.5,209C 472.555,210.262 458.555,210.929 444.5,211C 451.127,222.419 457.627,233.919 464,245.5C 468.436,255.262 466.27,263.095 457.5,269C 440.589,277.372 423.756,285.872 407,294.5C 406.667,331.833 406.333,369.167 406,406.5C 403.97,428.863 392.137,443.029 370.5,449C 332.528,450.449 294.528,450.949 256.5,450.5C 256.667,466.503 256.5,482.503 256,498.5C 255.242,504.714 252.076,509.047 246.5,511.5C 192.5,511.5 138.5,511.5 84.5,511.5C 79.3314,509.157 76.1648,505.157 75,499.5C 74.6667,447.833 74.3333,396.167 74,344.5C 72.8365,339.172 70.8365,334.172 68,329.5C 16.0866,269.387 2.4199,201.387 27,125.5C 57.7638,53.2277 111.93,11.2277 189.5,-0.5 Z M 195.5,60.5 C 251.118,57.2265 294.284,78.5599 325,124.5C 331.249,134.719 329.082,142.553 318.5,148C 311.655,149.33 306.155,147.164 302,141.5C 280.88,107.597 250.213,89.9303 210,88.5C 163.448,90.7588 130.782,113.092 112,155.5C 96.5651,202.262 106.732,242.428 142.5,276C 178.565,302.751 217.232,307.085 258.5,289C 276.899,279.268 291.399,265.435 302,247.5C 309.655,238.626 317.655,238.293 326,246.5C 329.48,252.676 329.147,258.676 325,264.5C 288.285,317.64 238.118,337.473 174.5,324C 128.496,309.329 97.6622,279.162 82,233.5C 67.9297,178.6 81.4297,131.767 122.5,93C 143.802,75.2909 168.135,64.4576 195.5,60.5 Z M 199.5,120.5 C 204.511,120.334 209.511,120.501 214.5,121C 224.254,125.67 226.754,132.836 222,142.5C 220.062,145.106 217.562,146.939 214.5,148C 184.765,149.572 168.098,165.072 164.5,194.5C 168.126,223.958 184.793,239.458 214.5,241C 224.254,245.67 226.754,252.836 222,262.5C 220.062,265.106 217.562,266.939 214.5,268C 183.879,268.606 160.712,255.773 145,229.5C 129.128,194.194 135.295,163.361 163.5,137C 174.19,128.486 186.19,122.986 199.5,120.5 Z M 266.5,150.5 C 278.981,150.146 284.814,156.146 284,168.5C 282.431,172.072 280.098,175.072 277,177.5C 276.517,178.448 276.351,179.448 276.5,180.5C 326.168,180.333 375.834,180.5 425.5,181C 430.88,189.59 435.88,198.423 440.5,207.5C 385.837,208.5 331.171,208.833 276.5,208.5C 276.351,209.552 276.517,210.552 277,211.5C 286.321,219.211 286.821,227.377 278.5,236C 273.167,239.333 267.833,239.333 262.5,236C 251,224.5 239.5,213 228,201.5C 226,196.833 226,192.167 228,187.5C 240.425,174.571 253.259,162.238 266.5,150.5 Z"/></g>
</svg>
