<?xml version="1.0" encoding="UTF-8"?>
<!DOCTYPE svg PUBLIC "-//W3C//DTD SVG 1.1//EN" "http://www.w3.org/Graphics/SVG/1.1/DTD/svg11.dtd">
<svg xmlns="http://www.w3.org/2000/svg" version="1.1" width="512px" height="512px" style="shape-rendering:geometricPrecision; text-rendering:geometricPrecision; image-rendering:optimizeQuality; fill-rule:evenodd; clip-rule:evenodd" xmlns:xlink="http://www.w3.org/1999/xlink">
<g><path style="opacity:0.973" fill="#444544" d="M 239.5,36.5 C 294.855,32.4325 338.022,53.0991 369,98.5C 396.558,146.694 396.224,194.694 368,242.5C 347.736,272.577 319.903,291.91 284.5,300.5C 280.176,295.34 274.842,291.673 268.5,289.5C 267.017,285.62 265.85,281.62 265,277.5C 263.698,273.726 261.531,270.559 258.5,268C 278.833,267.667 299.167,267.333 319.5,267C 324.799,265.602 328.632,262.435 331,257.5C 331.667,238.833 331.667,220.167 331,201.5C 325.712,178.212 311.546,163.378 288.5,157C 280.21,155.879 271.876,155.213 263.5,155C 290.133,146.242 300.633,128.075 295,100.5C 286.082,79.6181 270.249,70.4515 247.5,73C 225.069,79.3658 213.902,94.1992 214,117.5C 217.441,136.939 228.608,149.439 247.5,155C 225.629,153.031 207.129,159.865 192,175.5C 185.85,183.136 181.85,191.803 180,201.5C 179.333,220.167 179.333,238.833 180,257.5C 182.327,262.423 186.16,265.59 191.5,267C 201.5,267.333 211.5,267.667 221.5,268C 214.6,276.202 211.6,285.702 212.5,296.5C 164.362,278.249 134.862,243.915 124,193.5C 115.99,135.039 136.157,89.2058 184.5,56C 201.623,45.7941 219.957,39.2941 239.5,36.5 Z"/></g>
<g><path style="opacity:0.965" fill="#444544" d="M 61.5,79.5 C 89.6422,78.8084 103.142,92.4751 102,120.5C 95.3486,142.142 80.8486,150.975 58.5,147C 39.069,139.308 31.2356,125.142 35,104.5C 39.5478,91.4476 48.3811,83.1143 61.5,79.5 Z"/></g>
<g><path style="opacity:0.964" fill="#444544" d="M 436.5,79.5 C 458.605,77.9626 472.105,87.9626 477,109.5C 477.886,130.568 468.052,143.401 447.5,148C 427.21,149.272 414.376,140.105 409,120.5C 406.941,99.094 416.108,85.4274 436.5,79.5 Z"/></g>
<g><path style="opacity:0.958" fill="#444544" d="M 251.5,87.5 C 266.515,86.5868 276.348,93.2535 281,107.5C 282.331,130.501 271.498,141.001 248.5,139C 233.74,133.657 227.573,123.157 230,107.5C 233.564,96.7635 240.73,90.0968 251.5,87.5 Z"/></g>
<g><path style="opacity:0.97" fill="#444544" d="M -0.5,256.5 C -0.5,238.167 -0.5,219.833 -0.5,201.5C 6.00281,178.836 21.0028,166.003 44.5,163C 60.5,162.333 76.5,162.333 92.5,163C 97.2381,163.519 101.905,164.352 106.5,165.5C 105.875,199.12 115.208,229.62 134.5,257C 134.355,257.772 134.022,258.439 133.5,259C 123.839,259.5 114.172,259.666 104.5,259.5C 104.667,243.83 104.5,228.163 104,212.5C 101.087,207.311 96.9201,206.144 91.5,209C 90.1068,210.171 89.2735,211.671 89,213.5C 88.5001,228.83 88.3334,244.163 88.5,259.5C 74.8333,259.5 61.1667,259.5 47.5,259.5C 47.6666,243.83 47.4999,228.163 47,212.5C 42.6838,205.117 38.0172,204.784 33,211.5C 32.5001,227.497 32.3334,243.497 32.5,259.5C 22.4944,259.666 12.4944,259.5 2.5,259C 1.62656,257.955 0.626561,257.122 -0.5,256.5 Z"/></g>
<g><path style="opacity:0.97" fill="#444544" d="M 511.5,201.5 C 511.5,219.833 511.5,238.167 511.5,256.5C 510.373,257.122 509.373,257.955 508.5,259C 498.506,259.5 488.506,259.666 478.5,259.5C 478.667,243.497 478.5,227.497 478,211.5C 472.983,204.784 468.316,205.117 464,212.5C 463.5,228.163 463.333,243.83 463.5,259.5C 449.833,259.5 436.167,259.5 422.5,259.5C 422.667,244.163 422.5,228.83 422,213.5C 419.983,208.076 416.15,206.242 410.5,208C 408.951,209.214 407.785,210.714 407,212.5C 406.5,228.163 406.333,243.83 406.5,259.5C 396.828,259.666 387.161,259.5 377.5,259C 376.978,258.439 376.645,257.772 376.5,257C 395.792,229.62 405.125,199.12 404.5,165.5C 417.189,163.047 430.022,162.047 443,162.5C 450.833,162.667 458.667,162.833 466.5,163C 490.006,166.013 505.006,178.846 511.5,201.5 Z"/></g>
<g><path style="opacity:0.963" fill="#444544" d="M 226.5,171.5 C 245.836,171.333 265.17,171.5 284.5,172C 299.823,175.99 309.99,185.49 315,200.5C 316.427,217.452 316.927,234.452 316.5,251.5C 308.167,251.5 299.833,251.5 291.5,251.5C 291.667,238.163 291.5,224.829 291,211.5C 286.297,204.887 281.631,204.887 277,211.5C 276.5,224.829 276.333,238.163 276.5,251.5C 262.5,251.5 248.5,251.5 234.5,251.5C 234.667,238.163 234.5,224.829 234,211.5C 229.369,204.887 224.703,204.887 220,211.5C 219.5,224.829 219.333,238.163 219.5,251.5C 211.167,251.5 202.833,251.5 194.5,251.5C 194.333,236.163 194.5,220.83 195,205.5C 198.801,187.869 209.301,176.536 226.5,171.5 Z"/></g>
<g><path style="opacity:0.977" fill="#444544" d="M 235.5,276.5 C 241.52,275.22 246.353,276.887 250,281.5C 251.28,290.733 251.947,300.066 252,309.5C 257.086,303.884 262.919,303.051 269.5,307C 272.797,311.577 274.297,316.743 274,322.5C 280.375,315.845 286.708,315.845 293,322.5C 294.174,326.046 294.84,329.713 295,333.5C 296.935,329.198 300.268,327.198 305,327.5C 310.211,327.373 313.878,329.707 316,334.5C 316.667,361.833 316.667,389.167 316,416.5C 313.061,425.713 309.561,434.713 305.5,443.5C 309.713,444.195 313.879,444.861 318,445.5C 318.667,454.833 318.667,464.167 318,473.5C 284.238,474.662 250.405,474.829 216.5,474C 215.349,464.578 215.182,455.078 216,445.5C 220.066,444.536 224.233,444.203 228.5,444.5C 229.08,435.669 228.247,427.002 226,418.5C 216,401.167 206,383.833 196,366.5C 189.854,355.92 192.521,348.92 204,345.5C 206.584,346.104 209.084,346.937 211.5,348C 217.377,356.918 222.877,366.085 228,375.5C 228.333,345.5 228.667,315.5 229,285.5C 229.873,281.475 232.039,278.475 235.5,276.5 Z"/></g>
</svg>
