<?xml version="1.0" encoding="UTF-8"?>
<!DOCTYPE svg PUBLIC "-//W3C//DTD SVG 1.1//EN" "http://www.w3.org/Graphics/SVG/1.1/DTD/svg11.dtd">
<svg xmlns="http://www.w3.org/2000/svg" version="1.1" width="512px" height="512px" style="shape-rendering:geometricPrecision; text-rendering:geometricPrecision; image-rendering:optimizeQuality; fill-rule:evenodd; clip-rule:evenodd" xmlns:xlink="http://www.w3.org/1999/xlink">
<g><path style="opacity:0.965" fill="#444544" d="M 358.5,31.5 C 412.49,27.4135 450.657,49.7468 473,98.5C 481.95,124.954 481.616,151.287 472,177.5C 470.254,181.327 468.254,184.993 466,188.5C 461.603,179.436 455.103,172.269 446.5,167C 432.606,161.535 418.606,156.369 404.5,151.5C 427.127,132.658 432.627,109.658 421,82.5C 406.333,59.1608 385.5,50.6608 358.5,57C 328.106,69.7532 316.606,92.2532 324,124.5C 327.838,135.669 334.672,144.502 344.5,151C 333.351,155.384 322.018,159.384 310.5,163C 298.428,167.741 289.595,175.908 284,187.5C 283.107,188.711 282.274,188.711 281.5,187.5C 261.35,146.37 264.85,107.37 292,70.5C 309.451,49.3614 331.617,36.3614 358.5,31.5 Z"/></g>
<g><path style="opacity:0.968" fill="#444544" d="M 372.5,69.5 C 396.557,70.8908 409.891,83.5574 412.5,107.5C 410.821,131.179 398.154,143.846 374.5,145.5C 350.811,143.811 338.144,131.144 336.5,107.5C 337.956,84.7129 349.956,72.0462 372.5,69.5 Z"/></g>
<g><path style="opacity:0.931" fill="#444544" d="M 206.5,100.5 C 217.024,99.1816 220.857,103.515 218,113.5C 201.5,130 185,146.5 168.5,163C 157.513,166.343 153.346,162.509 156,151.5C 173.035,134.632 189.868,117.632 206.5,100.5 Z"/></g>
<g><path style="opacity:0.921" fill="#444544" d="M 209.5,147.5 C 218.224,148.618 221.058,153.285 218,161.5C 209.5,170 201,178.5 192.5,187C 181.513,190.343 177.346,186.509 180,175.5C 189.45,165.544 199.284,156.211 209.5,147.5 Z"/></g>
<g><path style="opacity:0.976" fill="#444544" d="M 367.5,160.5 C 373.888,160.312 380.222,160.812 386.5,162C 404.516,167.005 422.183,173.005 439.5,180C 449.195,186.226 454.028,195.059 454,206.5C 426.289,235.848 392.455,247.015 352.5,240C 329.368,235.36 310.201,224.193 295,206.5C 294.582,194.168 299.749,185.001 310.5,179C 329.379,172.095 348.379,165.928 367.5,160.5 Z"/></g>
<g><path style="opacity:0.969" fill="#444544" d="M 134.5,175.5 C 139.412,175.063 144.078,175.896 148.5,178C 162.696,191.862 176.529,206.029 190,220.5C 192.295,226.809 191.628,232.809 188,238.5C 181.333,245.167 174.667,251.833 168,258.5C 148.167,238.667 128.333,218.833 108.5,199C 116.489,190.165 125.156,182.332 134.5,175.5 Z"/></g>
<g><path style="opacity:0.98" fill="#444544" d="M 97.5,209.5 C 117.673,228.839 137.339,248.673 156.5,269C 147.71,278.792 138.543,288.292 129,297.5C 114.917,315.822 111.584,335.822 119,357.5C 121.755,363.01 124.422,368.343 127,373.5C 107.333,393.167 87.6667,412.833 68,432.5C 31.3486,388.902 22.0153,339.902 40,285.5C 45.9491,270.261 53.9491,256.261 64,243.5C 75.3687,232.298 86.5354,220.965 97.5,209.5 Z"/></g>
<g><path style="opacity:0.894" fill="#444544" d="M 351.5,291.5 C 360.846,291.332 364.346,295.665 362,304.5C 354.198,313.303 346.031,321.803 337.5,330C 333.742,332.869 329.742,333.202 325.5,331C 322.197,327.205 321.697,323.038 324,318.5C 333.062,309.27 342.228,300.27 351.5,291.5 Z"/></g>
<g><path style="opacity:0.932" fill="#444544" d="M 400.5,291.5 C 408.992,291.79 412.158,296.124 410,304.5C 393.167,321.333 376.333,338.167 359.5,355C 348.491,357.654 344.657,353.487 348,342.5C 365.115,324.882 382.615,307.882 400.5,291.5 Z"/></g>
<g><path style="opacity:0.968" fill="#444544" d="M 279.5,319.5 C 284.08,319.113 288.414,319.947 292.5,322C 306.696,335.862 320.529,350.029 334,364.5C 336.169,370.314 335.835,375.981 333,381.5C 326,388.5 319,395.5 312,402.5C 292.167,382.667 272.333,362.833 252.5,343C 259.167,336.333 265.833,329.667 272.5,323C 274.925,321.787 277.259,320.621 279.5,319.5 Z"/></g>
<g><path style="opacity:0.98" fill="#444544" d="M 240.5,354.5 C 241.552,354.351 242.552,354.517 243.5,355C 262.833,374.333 282.167,393.667 301.5,413C 290.167,424.333 278.833,435.667 267.5,447C 221.227,482.078 170.893,489.078 116.5,468C 102.463,461.655 89.7965,453.322 78.5,443C 98.1667,423.333 117.833,403.667 137.5,384C 142.657,386.578 147.99,389.245 153.5,392C 175.272,399.432 195.272,396.098 213.5,382C 222.702,372.965 231.702,363.798 240.5,354.5 Z"/></g>
</svg>
