<?xml version="1.0" standalone="no"?>
<!DOCTYPE svg PUBLIC "-//W3C//DTD SVG 20010904//EN"
 "http://www.w3.org/TR/2001/REC-SVG-20010904/DTD/svg10.dtd">
<svg version="1.0" xmlns="http://www.w3.org/2000/svg"
 width="300.000000pt" height="300.000000pt" viewBox="0 0 300.000000 300.000000"
 preserveAspectRatio="xMidYMid meet">
<metadata>
Created by potrace 1.10, written by Peter Selinger 2001-2011
</metadata>
<g transform="translate(0.000000,300.000000) scale(0.100000,-0.100000)"
fill="#000000" stroke="none">
<path d="M1453 2885 c-44 -19 -116 -87 -154 -146 -40 -62 -112 -228 -106 -244
7 -17 289 -77 302 -63 9 9 9 468 0 468 -5 -1 -24 -7 -42 -15z m5 -227 l-3
-173 -52 1 c-28 1 -74 7 -102 14 -43 10 -51 16 -51 35 0 39 86 197 134 248 75
77 77 74 74 -125z"/>
<path d="M1548 2664 l-3 -236 59 6 c32 3 67 6 76 6 12 0 20 11 24 31 8 43 38
82 80 104 20 11 36 23 36 28 0 25 -80 156 -123 204 -45 49 -110 93 -136 93 -7
0 -11 -87 -13 -236z m113 124 c44 -46 99 -133 99 -159 0 -8 -12 -26 -26 -40
-15 -13 -37 -41 -51 -62 -24 -38 -57 -58 -80 -50 -10 4 -13 49 -13 179 0 199
2 203 71 132z"/>
<path d="M1250 2864 c-47 -13 -122 -42 -168 -64 -83 -39 -202 -116 -202 -130
0 -17 256 -170 264 -158 1 2 11 26 21 53 34 95 99 208 153 266 63 68 59 70
-68 33z m-70 -170 c-32 -64 -61 -118 -63 -121 -10 -10 -167 81 -167 97 0 21
230 140 271 140 13 0 4 -26 -41 -116z"/>
<path d="M1711 2859 c46 -44 93 -113 130 -193 26 -57 34 -65 64 -70 19 -4 47
-17 63 -30 32 -27 28 -28 135 41 37 25 67 48 67 53 0 13 -98 80 -185 126 -75
39 -194 82 -275 99 l-35 7 36 -33z m244 -104 c50 -25 104 -56 120 -70 l30 -25
-25 -19 c-54 -43 -77 -47 -133 -19 -47 23 -56 34 -96 108 l-44 83 29 -7 c16
-4 70 -27 119 -51z"/>
<path d="M773 2573 c-161 -183 -239 -361 -267 -608 l-6 -50 180 -3 c178 -4
180 -3 180 18 0 29 33 90 67 122 30 29 91 58 121 58 17 0 20 10 26 69 4 38 18
117 31 177 14 59 24 108 22 109 -1 1 -36 19 -77 40 -41 20 -105 59 -141 86
-37 27 -69 49 -72 49 -3 0 -32 -30 -64 -67z m132 -29 c28 -20 76 -49 107 -65
31 -16 59 -33 63 -39 5 -8 -10 -96 -43 -249 -6 -29 -16 -39 -60 -62 -70 -36
-88 -53 -124 -116 -16 -29 -37 -54 -46 -57 -9 -3 -57 -4 -107 -1 -49 3 -102 5
-117 5 -25 0 -28 4 -28 34 0 55 47 225 84 303 55 114 179 283 209 283 7 0 35
-16 62 -36z"/>
<path d="M2172 2601 c-18 -15 -59 -43 -92 -62 -43 -25 -58 -38 -53 -49 27 -63
5 -153 -47 -192 -25 -18 -26 -23 -19 -61 5 -23 12 -108 16 -189 l6 -148 279 0
279 0 -6 53 c-21 179 -69 331 -145 453 -48 78 -165 224 -178 224 -4 -1 -22
-13 -40 -29z m83 -73 c127 -149 226 -374 229 -525 l1 -58 -217 -3 c-250 -3
-248 -4 -248 81 0 29 -5 92 -10 142 -10 84 -9 91 10 115 38 46 60 103 60 157
0 52 0 52 58 92 31 22 62 40 69 40 6 1 28 -18 48 -41z"/>
<path d="M1156 2383 c-23 -101 -47 -263 -42 -272 3 -5 19 -11 36 -14 46 -10
117 -87 131 -141 l11 -46 104 0 104 0 0 239 0 238 -77 7 c-69 6 -189 32 -235
51 -13 5 -19 -5 -32 -62z m169 -17 c39 -9 82 -16 96 -16 15 0 30 -7 33 -16 3
-9 6 -91 6 -184 0 -93 -3 -175 -6 -184 -5 -12 -21 -16 -65 -16 l-59 0 -24 48
c-24 47 -83 109 -125 132 -26 13 -27 49 -6 152 24 111 23 111 54 104 14 -3 58
-12 96 -20z"/>
<path d="M1611 2391 l-64 -6 -5 -237 -4 -238 133 -1 c74 0 165 -3 203 -5 l69
-5 -8 128 c-4 70 -10 151 -14 178 -6 47 -8 50 -34 47 -74 -8 -168 54 -182 119
-4 16 -12 28 -18 27 -7 -1 -41 -4 -76 -7z m78 -77 c34 -49 76 -79 136 -97 58
-16 59 -20 70 -159 5 -68 3 -98 -5 -103 -20 -12 -293 -5 -302 8 -12 18 -10
345 2 368 7 13 21 19 43 19 26 0 37 -7 56 -36z"/>
<path d="M505 1813 c28 -251 111 -442 268 -617 l53 -59 54 42 c30 23 97 63
148 88 80 40 92 50 88 68 -11 39 -45 230 -51 288 -6 49 -9 57 -28 57 -65 0
-160 85 -173 157 l-6 33 -180 0 -179 0 6 -57z m348 -46 c35 -54 106 -117 131
-117 25 -1 37 -19 46 -76 6 -32 17 -96 26 -141 8 -45 13 -87 9 -93 -4 -6 -32
-23 -63 -39 -31 -16 -79 -45 -107 -65 -27 -20 -55 -36 -61 -36 -31 0 -148 162
-201 278 -56 120 -100 322 -76 346 4 3 63 5 132 4 l125 -3 39 -58z"/>
<path d="M1280 1827 c-16 -54 -73 -113 -129 -134 l-47 -18 16 -115 c9 -63 23
-141 29 -173 12 -53 15 -58 34 -52 67 19 209 45 255 45 l52 0 0 118 c0 66 3
173 7 240 l6 121 -106 3 -105 3 -12 -38z m171 -44 c2 -125 -2 -347 -7 -352 -5
-5 -70 -17 -206 -37 l-47 -7 -10 39 c-5 22 -15 77 -22 123 -12 83 -11 85 11
100 53 38 113 98 131 133 l19 38 65 0 65 0 1 -37z"/>
<path d="M1540 1620 l0 -240 43 0 c23 0 59 -3 79 -6 31 -5 39 -3 44 12 24 65
94 114 162 114 l40 0 11 93 c6 50 14 131 17 180 l7 87 -202 0 -201 0 0 -240z
m349 187 c12 -15 -4 -218 -20 -248 -4 -9 -30 -22 -56 -28 -36 -9 -60 -25 -96
-62 -45 -46 -51 -50 -90 -47 l-42 3 -3 185 c-1 101 0 190 2 197 8 19 289 18
305 0z"/>
<path d="M1980 1783 c0 -43 -7 -127 -15 -188 -8 -60 -15 -113 -15 -116 0 -3
11 -11 24 -17 48 -22 83 -142 56 -192 -9 -16 -6 -22 17 -34 16 -7 57 -35 92
-61 l65 -48 53 59 c117 129 200 278 242 435 19 69 42 218 36 229 -2 3 -127 7
-279 9 l-276 3 0 -79z m504 20 c10 -7 0 -89 -20 -163 -33 -121 -89 -237 -157
-330 -47 -64 -98 -120 -109 -120 -5 0 -33 16 -63 36 -55 37 -55 37 -55 88 0
52 -28 123 -69 176 -18 24 -18 30 -6 120 8 52 14 115 14 141 1 25 7 51 14 58
9 10 59 11 227 6 118 -4 219 -10 224 -12z"/>
<path d="M1395 1333 c-66 -8 -215 -45 -215 -53 0 -20 53 -149 86 -210 53 -98
163 -200 214 -200 7 0 10 79 10 235 l0 235 -32 -1 c-18 -1 -46 -4 -63 -6z m53
-220 c3 -191 1 -196 -57 -148 -58 50 -173 267 -152 288 16 16 107 36 156 34
l50 -2 3 -172z"/>
<path d="M1537 1109 c-4 -128 -4 -235 -1 -238 12 -12 117 54 155 98 36 40 97
139 114 181 3 10 -6 21 -28 33 -36 20 -77 81 -77 116 0 23 -10 26 -101 36
l-56 6 -6 -232z m133 141 c11 -22 34 -56 52 -76 l32 -36 -24 -46 c-29 -54
-116 -152 -135 -152 -11 0 -15 27 -17 118 -2 64 -2 143 0 175 l3 57 34 0 c30
0 37 -5 55 -40z"/>
<path d="M1043 1226 c-96 -52 -173 -103 -173 -116 0 -14 92 -77 181 -124 77
-40 194 -83 277 -101 l32 -7 -49 51 c-53 55 -142 218 -162 297 -6 24 -14 44
-18 44 -3 0 -43 -20 -88 -44z m79 -47 c6 -17 30 -71 55 -121 24 -50 42 -92 40
-94 -7 -7 -86 24 -155 61 -85 44 -127 78 -118 93 7 12 145 92 159 92 4 0 13
-14 19 -31z"/>
<path d="M1962 1185 c-18 -13 -49 -26 -70 -30 -34 -5 -40 -12 -76 -82 -22 -41
-64 -102 -94 -134 -32 -35 -48 -59 -39 -59 31 0 193 52 264 85 79 36 213 121
213 134 0 9 -148 112 -158 110 -4 0 -22 -11 -40 -24z m112 -68 c18 -13 18 -14
-5 -36 -49 -46 -281 -145 -268 -115 27 63 77 138 98 146 15 6 44 18 66 28 42
18 59 15 109 -23z"/>
<path d="M1490 730 l0 -90 -421 0 -421 0 -29 -29 c-28 -28 -29 -34 -29 -115
l0 -86 -46 2 c-72 4 -84 -18 -84 -149 0 -99 9 -138 34 -155 6 -4 64 -8 128 -8
159 0 158 -1 158 158 0 107 -2 121 -21 138 -15 13 -33 18 -70 16 l-49 -2 0 85
c0 73 3 86 19 95 13 6 165 10 425 10 l406 0 0 -96 0 -96 -37 3 c-98 5 -103 -1
-103 -155 0 -160 -4 -156 158 -156 134 0 146 5 158 65 3 19 4 75 3 124 -5 111
-16 126 -89 123 l-50 -2 0 95 0 95 388 0 c456 0 422 9 422 -113 l0 -77 -49 2
c-37 2 -55 -3 -70 -16 -19 -17 -21 -31 -21 -138 0 -159 -1 -158 158 -158 64 0
122 4 128 8 25 17 34 56 34 155 0 133 -11 153 -89 149 l-51 -2 0 86 c0 81 -1
87 -29 115 l-29 29 -396 0 -396 0 0 90 c0 83 -1 90 -20 90 -19 0 -20 -7 -20
-90z m-810 -357 c19 -3 41 -10 48 -15 16 -14 17 -189 0 -206 -14 -14 -185 -17
-206 -4 -9 6 -12 36 -10 113 l3 104 38 6 c20 3 40 9 44 13 4 4 17 4 28 1 11
-4 36 -9 55 -12z m895 -1 l40 -7 3 -104 c2 -77 -1 -107 -10 -113 -21 -13 -192
-10 -206 4 -13 13 -17 173 -6 202 4 10 18 16 38 16 17 0 38 5 46 10 8 6 24 8
35 4 11 -3 38 -9 60 -12z m835 4 l55 -12 3 -104 c2 -76 -1 -106 -10 -112 -21
-13 -192 -10 -206 4 -13 13 -17 173 -6 202 4 10 18 16 38 16 17 0 38 5 46 10
18 12 13 12 80 -4z"/>
</g>
</svg>
